<svg xmlns="http://www.w3.org/2000/svg" xmlns:xlink="http://www.w3.org/1999/xlink" width="1292.132" height="1002.818" viewBox="0 0 1292.132 1002.818">
  <defs>
    <linearGradient id="linear-gradient" x1="0.095" y1="-0.018" x2="1.174" y2="2.023" gradientUnits="objectBoundingBox">
      <stop offset="0" stop-color="#e7f3fe"/>
      <stop offset="0.441" stop-color="#eff7fe"/>
      <stop offset="1" stop-color="#fff"/>
    </linearGradient>
    <linearGradient id="linear-gradient-2" x1="0.5" y1="0.176" x2="0.5" y2="0.915" gradientUnits="objectBoundingBox">
      <stop offset="0" stop-color="#324179"/>
      <stop offset="1" stop-color="#0c124d"/>
    </linearGradient>
    <linearGradient id="linear-gradient-3" x1="0.5" y1="0.176" x2="0.499" y2="0.915" xlink:href="#linear-gradient-2"/>
    <linearGradient id="linear-gradient-4" x1="0.486" y1="0.295" x2="0.346" y2="0.879" gradientUnits="objectBoundingBox">
      <stop offset="0" stop-color="#d1e8ff"/>
      <stop offset="1" stop-color="#eaefff"/>
    </linearGradient>
    <linearGradient id="linear-gradient-5" x1="0.628" y1="0.18" x2="0.338" y2="0.902" gradientUnits="objectBoundingBox">
      <stop offset="0" stop-color="#6d6afe"/>
      <stop offset="1" stop-color="#3fb0f7"/>
    </linearGradient>
    <linearGradient id="linear-gradient-6" x1="0.403" y1="0.663" x2="0.709" y2="0.148" gradientUnits="objectBoundingBox">
      <stop offset="0" stop-color="#965cf2"/>
      <stop offset="1" stop-color="#ff8adc"/>
    </linearGradient>
    <linearGradient id="linear-gradient-7" x1="0.439" y1="0.643" x2="0.768" y2="0.166" xlink:href="#linear-gradient-6"/>
    <linearGradient id="linear-gradient-8" x1="0.408" y1="0.675" x2="0.716" y2="0.158" xlink:href="#linear-gradient-6"/>
    <linearGradient id="linear-gradient-9" x1="0.532" y1="0.401" x2="0.466" y2="0.605" gradientUnits="objectBoundingBox">
      <stop offset="0" stop-color="#1c8ef4"/>
      <stop offset="1" stop-color="#00cfdd"/>
    </linearGradient>
    <linearGradient id="linear-gradient-10" x1="0.381" y1="0.74" x2="0.822" y2="-0.004" xlink:href="#linear-gradient-6"/>
    <linearGradient id="linear-gradient-11" x1="0.636" y1="0.163" x2="0.33" y2="0.923" xlink:href="#linear-gradient-5"/>
    <linearGradient id="linear-gradient-12" x1="0.47" y1="0.583" x2="0.598" y2="0.235" xlink:href="#linear-gradient-6"/>
    <linearGradient id="linear-gradient-13" x1="0.961" y1="0.214" x2="0.547" y2="0.718" gradientUnits="objectBoundingBox">
      <stop offset="0" stop-color="#ff66bc"/>
      <stop offset="0.56" stop-color="#ff8adc"/>
      <stop offset="1" stop-color="#ffbba8"/>
    </linearGradient>
    <linearGradient id="linear-gradient-14" x1="0.775" y1="0.491" x2="0.129" y2="0.512" xlink:href="#linear-gradient-13"/>
    <linearGradient id="linear-gradient-15" x1="0.586" y1="0.591" x2="0.785" y2="0.162" xlink:href="#linear-gradient-6"/>
    <linearGradient id="linear-gradient-16" x1="0.515" y1="0.71" x2="0.471" y2="0.086" xlink:href="#linear-gradient-6"/>
    <linearGradient id="linear-gradient-17" x1="0.499" y1="0.081" x2="0.501" y2="0.837" gradientUnits="objectBoundingBox">
      <stop offset="0" stop-color="#5a2d68"/>
      <stop offset="1" stop-color="#22043d"/>
    </linearGradient>
    <linearGradient id="linear-gradient-18" x1="0.657" y1="0.509" x2="0.395" y2="0.469" gradientUnits="objectBoundingBox">
      <stop offset="0" stop-color="#ff8a78"/>
      <stop offset="1" stop-color="#ffa799"/>
    </linearGradient>
    <linearGradient id="linear-gradient-19" x1="0.514" y1="0.843" x2="0.496" y2="0.134" xlink:href="#linear-gradient-6"/>
    <linearGradient id="linear-gradient-20" x1="0.606" y1="0.853" x2="0.432" y2="0.198" xlink:href="#linear-gradient-6"/>
    <linearGradient id="linear-gradient-21" x1="0.398" y1="0.535" x2="0.622" y2="0.759" xlink:href="#linear-gradient-18"/>
    <linearGradient id="linear-gradient-22" x1="0.601" y1="0.77" x2="0.276" y2="-0.099" xlink:href="#linear-gradient-6"/>
    <linearGradient id="linear-gradient-23" x1="0.626" y1="0.31" x2="0.489" y2="0.566" xlink:href="#linear-gradient-5"/>
    <linearGradient id="linear-gradient-24" x1="0.595" y1="0.393" x2="0.477" y2="0.526" xlink:href="#linear-gradient-5"/>
    <linearGradient id="linear-gradient-25" x1="0.857" y1="0.286" x2="0.181" y2="0.692" xlink:href="#linear-gradient-5"/>
    <linearGradient id="linear-gradient-26" x1="0.555" y1="0.351" x2="0.43" y2="0.687" xlink:href="#linear-gradient-5"/>
    <linearGradient id="linear-gradient-27" x1="0.443" y1="0.631" x2="0.633" y2="0.197" xlink:href="#linear-gradient-6"/>
    <linearGradient id="linear-gradient-28" x1="0.321" y1="0.724" x2="0.675" y2="0.281" xlink:href="#linear-gradient-5"/>
    <linearGradient id="linear-gradient-29" x1="0.662" y1="0.557" x2="0.49" y2="0.513" xlink:href="#linear-gradient-18"/>
    <linearGradient id="linear-gradient-30" x1="0.574" y1="0.83" x2="0.393" y2="0.15" xlink:href="#linear-gradient-6"/>
    <linearGradient id="linear-gradient-31" x1="0.704" y1="0.221" x2="0.253" y2="0.779" gradientUnits="objectBoundingBox">
      <stop offset="0" stop-color="#40457f"/>
      <stop offset="1" stop-color="#1e2353"/>
    </linearGradient>
    <linearGradient id="linear-gradient-32" x1="0.644" y1="0.321" x2="0.217" y2="0.982" gradientUnits="objectBoundingBox">
      <stop offset="0" stop-color="#3773b9"/>
      <stop offset="1" stop-color="#003c76"/>
    </linearGradient>
    <linearGradient id="linear-gradient-33" x1="0.851" y1="0.22" x2="-0.056" y2="0.742" xlink:href="#linear-gradient-31"/>
    <linearGradient id="linear-gradient-34" x1="0.587" y1="0.35" x2="0.051" y2="0.693" xlink:href="#linear-gradient-32"/>
    <linearGradient id="linear-gradient-35" x1="0.201" y1="0.854" x2="0.66" y2="0.351" xlink:href="#linear-gradient-18"/>
    <linearGradient id="linear-gradient-36" x1="0.497" y1="0.492" x2="0.704" y2="0.762" gradientUnits="objectBoundingBox">
      <stop offset="0" stop-color="#a77ef7"/>
      <stop offset="1" stop-color="#5e65d6"/>
    </linearGradient>
    <linearGradient id="linear-gradient-37" x1="0.518" y1="0.169" x2="0.379" y2="0.906" xlink:href="#linear-gradient-36"/>
    <linearGradient id="linear-gradient-38" x1="0.603" y1="0.301" x2="0.48" y2="0.661" xlink:href="#linear-gradient-18"/>
    <linearGradient id="linear-gradient-39" x1="0.555" y1="0.429" x2="0.25" y2="0.705" gradientUnits="objectBoundingBox">
      <stop offset="0" stop-color="#ffb89e"/>
      <stop offset="1" stop-color="#ffa799"/>
    </linearGradient>
    <linearGradient id="linear-gradient-40" x1="1.001" y1="0.119" x2="0.284" y2="0.728" gradientUnits="objectBoundingBox">
      <stop offset="0" stop-color="#8a4791"/>
      <stop offset="1" stop-color="#562e65"/>
    </linearGradient>
    <linearGradient id="linear-gradient-41" x1="0.288" y1="0.705" x2="0.792" y2="0.272" xlink:href="#linear-gradient-18"/>
    <linearGradient id="linear-gradient-42" x1="0.495" y1="0.126" x2="0.536" y2="1.56" xlink:href="#linear-gradient-36"/>
    <linearGradient id="linear-gradient-43" x1="0.44" y1="0.521" x2="0.711" y2="0.13" xlink:href="#linear-gradient-5"/>
    <linearGradient id="linear-gradient-44" x1="0.581" y1="0.584" x2="0.737" y2="0.249" xlink:href="#linear-gradient-6"/>
  </defs>
  <g id="Group_2631" data-name="Group 2631" transform="translate(-328.673 -106.331)">
    <g id="Group_2630" data-name="Group 2630">
      <path id="Path_10444" data-name="Path 10444" d="M3325.372,546.447c-8.073-4.476-16.638,1.561-16.551,13.242a23.38,23.38,0,0,0,6.651,16.175,15.863,15.863,0,0,0,3.271,2.451c8.06,4.466,16.584-1.567,16.523-13.2a23.323,23.323,0,0,0-6.6-16.2,15.983,15.983,0,0,0-3.3-2.473Zm-7.78,37.354a21.332,21.332,0,0,1-4.392-3.285c-5.454-5.235-8.868-13.619-8.949-21.756-.1-15.669,11.4-23.814,22.25-17.8a21.293,21.293,0,0,1,4.453,3.346c5.435,5.222,8.848,13.607,8.884,21.748.067,15.627-11.41,23.755-22.246,17.747Zm36.967-13.314a5.929,5.929,0,0,1,2.5,6.165l-1.972,9.18c-.505,2.339-2.445,3.388-4.336,2.342l-.966-.537a2.709,2.709,0,0,0-3.823,1.055,28.949,28.949,0,0,1-1.756,2.607,5.419,5.419,0,0,0-.393,5.2l.508,1.244c.972,2.372.389,5.076-1.287,5.983l-6.646,3.59a2.745,2.745,0,0,1-2.694-.1,5.147,5.147,0,0,1-2.156-2.594l-.514-1.215a5.093,5.093,0,0,0-2.137-2.561,3.116,3.116,0,0,0-1.6-.409c-.939,0-1.9-.032-2.842-.119-1.518-.145-2.785.93-3.172,2.726l-.254,1.2c-.5,2.339-2.446,3.388-4.338,2.343l-7.409-4.109a5.925,5.925,0,0,1-2.514-6.139l.258-1.194a6.254,6.254,0,0,0-1.447-5.286c-.8-.878-1.542-1.786-2.282-2.719a4.628,4.628,0,0,0-1.412-1.26,2.715,2.715,0,0,0-2.667-.1l-.869.447a2.749,2.749,0,0,1-2.7-.093,5.152,5.152,0,0,1-2.156-2.594l-3.851-9.412c-.969-2.371-.387-5.077,1.287-5.981l.878-.477c1.3-.7,1.97-2.487,1.693-4.475-.177-1.262-.3-2.526-.383-3.793a5.737,5.737,0,0,0-2.6-4.615l-.966-.537a5.919,5.919,0,0,1-2.514-6.137l1.977-9.179c.509-2.368,2.451-3.417,4.34-2.368l.966.534a2.7,2.7,0,0,0,3.822-1.052,27.618,27.618,0,0,1,1.759-2.605,5.378,5.378,0,0,0,.384-5.175l-.509-1.242c-.962-2.4-.386-5.076,1.294-6.007l6.647-3.594a2.75,2.75,0,0,1,2.693.1,5.158,5.158,0,0,1,2.158,2.593l.509,1.242a5.083,5.083,0,0,0,2.137,2.562,3.073,3.073,0,0,0,1.6.411,23.435,23.435,0,0,1,2.844.094c1.516.171,2.78-.9,3.167-2.7l.257-1.2c.508-2.367,2.451-3.416,4.34-2.367l7.413,4.109a5.923,5.923,0,0,1,2.5,6.16l-.257,1.2a6.175,6.175,0,0,0,1.435,5.249q1.2,1.318,2.3,2.757a4.575,4.575,0,0,0,1.412,1.257,2.71,2.71,0,0,0,2.664.1l.878-.473a2.74,2.74,0,0,1,2.693.1,5.147,5.147,0,0,1,2.159,2.594l3.847,9.412c.966,2.4.39,5.077-1.289,6.007l-.879.474c-1.3.7-1.969,2.489-1.686,4.453q.261,1.891.384,3.79a5.727,5.727,0,0,0,2.6,4.617Z" transform="translate(-2126.435 116.92) rotate(-8)" fill="#fff" fill-rule="evenodd" opacity="0.5"/>
      <g id="Group_2629" data-name="Group 2629" transform="translate(-18 -16)">
        <path id="Path_1" data-name="Path 1" d="M230.344,261.259c194.609-79.5,392.405-9.215,526.553,143.862s415.678-105.655,564.987,47.172c101.9,104.3,55.224,372.449-84.494,488.592-189.909,157.865-897.4,162.606-1014.789,108.433C22.007,956.749,221.321,785.326,127.685,621,17.218,427.132,144.343,296.389,230.344,261.259Z" transform="translate(262.02 -95.603)" fill="url(#linear-gradient)"/>
        <g id="Group_2627" data-name="Group 2627" transform="translate(474.364 236.406) rotate(-8)">
          <g id="Group_2576" data-name="Group 2576" transform="translate(443.422 105.3)">
            <path id="Path_10347" data-name="Path 10347" d="M3003.344,773.357c.506.3,1.191.508,2,.932,2.633,6.335,3.63,8.195,3.11,8.827-.424.515-.375.239-.6,1.512-.308,1.736,5.781,9.255,6.721,11.639a8.674,8.674,0,0,1,.212,6.325,32.7,32.7,0,0,1-6.486,10.992c-2.413,2.716-5.079,4.444-7.393,3.922-2.854-.641-2.368-3.2-1.941-5.731.153-.905,1.874-2.906,1.74-3.8-.763-5.072-4.473-9.5-7.2-13.891-2.339-2.176-6.273-4.463-8.454-6.98-3.15-3.635-3.744-7.46.166-9.684,1.247-.711,4.388-4.243,6-4.111C2994.292,773.566,2999.45,771.079,3003.344,773.357Z" transform="translate(-2897.101 -671.054)" fill="#202249" fill-rule="evenodd"/>
            <path id="Path_10348" data-name="Path 10348" d="M2846.342,702.567c-2.118,5.769-.467,10.886,4.167,13.089.031.029.06.059.092.087.182.065.371.13.563.195a11.656,11.656,0,0,0,1.521.479c5.547,1.644,13.839,3.141,18.908,4.108,20.225,3.862,50.36,6.272,64.514,11.673,5.551-4.077,7.2-11.647,3.563-16.189-15.438-7.356-36.292-16.914-45.037-20.154a25.061,25.061,0,0,0-7.3-1.227c13.029-11.748,26.827-24.471,32.188-35.317,3.794-7.677,4.407-18.335,7.048-25.006-21.267,6.225-25.34-6.607-29.247-11.12-3.35,4.911-3.27,4-6.661,9.253-11.468,17.757-28.375,42.934-39.875,61.633A29.95,29.95,0,0,0,2846.342,702.567Z" transform="translate(-2845.431 -614.803)" fill-rule="evenodd" fill="url(#linear-gradient-2)"/>
            <path id="Path_10349" data-name="Path 10349" d="M2926.888,704.885c-8.675-3.924-16.543-7.339-21.109-9.03a25.066,25.066,0,0,0-7.3-1.227c13.029-11.748,26.827-24.471,32.188-35.317,3.795-7.677,4.407-18.335,7.048-25.006-5.991,1.754-10.618,1.995-14.26,1.335l.573,4.154c-16.41,16.339-46.254,54.312-49.03,79.108,10.032,2.337,37.431,5.852,41.825,6.345,1.145-7.356,5.95-13.218,10.067-20.362Zm-14.956-76.861c-1.379-1.858-2.428-3.642-3.465-4.84-2.133,3.126-2.875,3.894-4.008,5.394Z" transform="translate(-2856.577 -614.803)" fill="#1e2353" fill-rule="evenodd" opacity="0.3" style="mix-blend-mode: multiply;isolation: isolate"/>
            <path id="Path_10350" data-name="Path 10350" d="M2949.222,901.522c2.986,4.142-5.069,24.934-7.031,29.313-1.73,3.861-1.179,6.23,2.915,6.29,3.224.049,8.346-4.522,11.466-7.511,5.854-5.608,6.189-11.32,7.887-13.754l2-.639c1.456-.825,5.772-6.453,6-8.584a46.929,46.929,0,0,0-2.221-5.791c-3.184-5.878-3.883-3.308-8.077-6.9C2957.369,897.413,2960.765,898.8,2949.222,901.522Z" transform="translate(-2881.562 -716.882)" fill="#202249" fill-rule="evenodd"/>
            <path id="Path_10351" data-name="Path 10351" d="M2891.654,723.114c8.738,16.914,30.468,55.055,38.143,72.011,6.767,1.428,13.629-2.525,14.223-7.847-4.94-16.256-12.958-43.021-16.921-51.555a113.66,113.66,0,0,0-11.918-18.9c12.91-18.062,33.363-46.5,39.269-63.166,8.036-22.676-1.187-35.616-13.569-42.741-4.4-2.531-9.14,1.529-11.376-1.184-5.284,10.314-10.057,24.334-13.15,36.953-4.312,17.595-24.873,54.932-26.429,67.487a13.605,13.605,0,0,0,1.235,7.1C2891.291,721.869,2891.451,722.48,2891.654,723.114Z" transform="translate(-2862.188 -609.732)" fill-rule="evenodd" fill="url(#linear-gradient-3)"/>
          </g>
          <path id="Path_10352" data-name="Path 10352" d="M3055.286,1666.524l-594.721-334.5c-7.507-3.42-18.539-6.64-25.9-2.146l-18.838,11.5c-3.788,2.313-16.25,9.994-7.917,14.515,24.523,13.3,573.663,323.892,598.564,337.4,4.708,2.556,11.6,3.473,18.831,2.862,7.2-.607,14.677-2.567,20.4-6.1l7.525-4.65c5.318-3.287,8.265-6.876,8.549-10.314C3062.051,1671.732,3059.894,1668.621,3055.286,1666.524Z" transform="translate(-2236 -775.097)" fill="#955cf1" fill-rule="evenodd" opacity="0.3"/>
          <g id="Group_2579" data-name="Group 2579" transform="translate(183.451 9.494)">
            <path id="Path_10353" data-name="Path 10353" d="M2589.428,458.333c-4.1-2.328-8.906-3.194-13.407-1.5l-10.062,3.932c-3.654,18.912,518.236,886.567,522.9,891.376l8.983-3.39c5.9-2.322,8.991-8.462,9.856-14.429l75.838-517.673a.263.263,0,0,0,.009-.057c1.235-8.707-1.382-17.77-6.169-25.042a29.138,29.138,0,0,0-10.131-9.769Z" transform="translate(-2480.09 -455.948)" fill-rule="evenodd" fill="url(#linear-gradient-4)"/>
            <path id="Path_10354" data-name="Path 10354" d="M3105.37,787.923,2527.554,464.473c-10.929-6.056-21.336-.242-23.266,12.942l-75.839,517.673c-1.93,13.184,5.335,28.8,16.262,34.852l577.82,323.45c10.929,6.059,21.36.257,23.29-12.924l75.84-517.678C3123.593,809.608,3116.3,793.982,3105.37,787.923Z" transform="translate(-2428.138 -458.258)" fill-rule="evenodd" fill="url(#linear-gradient-5)"/>
            <g id="Group_2578" data-name="Group 2578" transform="translate(73.593 3.817)">
              <path id="Path_10355" data-name="Path 10355" d="M3149.9,787.924,2572.089,464.473c-10.929-6.056-21.336-.242-23.265,12.941l-2.558,17.458,617.343,345.577,2.586-17.66C3168.128,809.608,3160.833,793.982,3149.9,787.924Z" transform="translate(-2546.266 -462.075)" fill="#4a9ff8" fill-rule="evenodd"/>
              <g id="Group_2577" data-name="Group 2577" transform="translate(13.868 15.116)">
                <path id="Path_10356" data-name="Path 10356" d="M2576.889,486.506c4.382,1,7.748,6.221,7.518,11.654s-3.969,9.027-8.351,8.024-7.748-6.22-7.518-11.654S2572.507,485.5,2576.889,486.506Z" transform="translate(-2568.527 -486.339)" fill="#5858f0" fill-rule="evenodd"/>
                <path id="Path_10357" data-name="Path 10357" d="M2608.92,504.9c4.382,1,7.747,6.22,7.517,11.653s-3.97,9.027-8.352,8.024-7.748-6.22-7.517-11.654S2604.538,503.9,2608.92,504.9Z" transform="translate(-2580.603 -493.274)" fill="#5858f0" fill-rule="evenodd"/>
                <path id="Path_10358" data-name="Path 10358" d="M2643.578,525.108c4.383,1,7.748,6.221,7.518,11.654s-3.969,9.026-8.352,8.023-7.747-6.219-7.517-11.654S2639.2,524.106,2643.578,525.108Z" transform="translate(-2593.669 -500.892)" fill="#5858f0" fill-rule="evenodd"/>
              </g>
            </g>
          </g>
          <path id="Path_10359" data-name="Path 10359" d="M3314.538,1236.87l-103.8-56.983c-6.021-3.336-11.916-3.807-16.841-1.888-6.313,2.458-11.037,8.847-12.4,18.153l-11.765,84.411c-2.428,16.569,6.705,36.189,20.438,43.8l103.8,56.983c13.739,7.612,26.846.321,29.274-16.244l11.762-84.416C3337.44,1264.124,3328.27,1244.482,3314.538,1236.87Z" transform="translate(-2524.126 -718.247)" fill-rule="evenodd" opacity="0.5" fill="url(#linear-gradient-6)" style="mix-blend-mode: multiply;isolation: isolate"/>
          <path id="Path_10360" data-name="Path 10360" d="M3123.167,796.63l227.586,111-6.027,6.156-21.844,152.677c-2.23,15.66-14.146,22.6-26.585,15.485l-213.03-121.8-18.5-41.275Z" transform="translate(-2484.699 -574.893)" fill-rule="evenodd" opacity="0.5" fill="url(#linear-gradient-7)" style="mix-blend-mode: multiply;isolation: isolate"/>
          <g id="Group_2583" data-name="Group 2583" transform="translate(0 272.383)">
            <path id="Path_10361" data-name="Path 10361" d="M2597.793,1127.539l-140.7-77.994-4.7,7.18-23.1,157.37,145.735,80.782c15.426,8.547,30.146.361,32.872-18.241l12.9-99.893C2623.512,1158.142,2613.216,1136.087,2597.793,1127.539Z" transform="translate(-2245.118 -942.627)" fill-rule="evenodd" opacity="0.5" fill="url(#linear-gradient-8)" style="mix-blend-mode: multiply;isolation: isolate"/>
            <g id="Group_2582" data-name="Group 2582">
              <g id="Group_2580" data-name="Group 2580">
                <path id="Path_10362" data-name="Path 10362" d="M2493.942,1097.344l-16.81,110.436,2.667.323,7.277-2.826c7.979-3.142,12.167-11.45,13.335-19.525l12.366-95.763a.5.5,0,0,0,.01-.079c1.671-11.78-1.868-24.042-8.346-33.884a39.437,39.437,0,0,0-13.707-13.217L2199.09,881.153c-5.548-3.151-12.05-4.323-18.137-2.026l-6.416,2.506c-3.229,1.214-4.228,2.183-4.207,2.385C2173.358,912.24,2498.191,1068.4,2493.942,1097.344Z" transform="translate(-2147.492 -877.925)" fill="#d0e7ff" fill-rule="evenodd"/>
                <path id="Path_10363" data-name="Path 10363" d="M2469.574,1047.433,2177.937,885.775c-6.481-3.592-12.827-4.1-18.13-2.033-6.8,2.647-11.882,9.523-13.35,19.543l-12.363,95.767c-2.615,17.839,7.217,38.961,22,47.157l291.643,161.659c14.789,8.193,28.9.345,31.515-17.489l12.364-95.771C2494.232,1076.774,2484.36,1055.629,2469.574,1047.433Z" transform="translate(-2133.672 -879.661)" fill-rule="evenodd" fill="url(#linear-gradient-9)"/>
              </g>
              <g id="Group_2581" data-name="Group 2581" transform="translate(21.696 50.335)">
                <path id="Path_10364" data-name="Path 10364" d="M2532.922,1127.6,2331.651,1016.9a5.046,5.046,0,0,0-4.335-.483c-1.624.63-2.839,2.276-3.19,4.671l-1.111,6.72c-.625,4.263,1.725,9.314,5.259,11.272l201.273,110.7c3.536,1.958,6.909.082,7.533-4.182l1.111-6.723c.627-4.261-1.734-9.316-5.269-11.276Zm-112.083,26.041c3.534,1.957,5.894,7.012,5.269,11.276l-1.112,6.722c-.625,4.263-4,6.138-7.533,4.18l-101.225-54.487c-3.533-1.957-5.884-7.01-5.259-11.271l1.11-6.719c.353-2.4,1.567-4.043,3.192-4.674a5.053,5.053,0,0,1,4.334.485l101.225,54.488ZM2526.9,1168.73c3.534,1.958,5.9,7.014,5.268,11.276l-1.11,6.721c-.624,4.265-4,6.14-7.534,4.183L2322.256,1080.2c-3.534-1.957-5.884-7.01-5.261-11.271l1.113-6.72c.351-2.4,1.567-4.043,3.19-4.672a5.055,5.055,0,0,1,4.336.483Z" transform="translate(-2222.175 -980.36)" fill="#fffcf1" fill-rule="evenodd" opacity="0.5"/>
                <path id="Path_10365" data-name="Path 10365" d="M2213.828,993.3c-9.517-5.276-19.613,1.84-19.51,15.611a27.55,27.55,0,0,0,7.84,19.066,18.671,18.671,0,0,0,3.856,2.89c9.5,5.265,19.549-1.847,19.477-15.554a27.5,27.5,0,0,0-7.775-19.1,18.925,18.925,0,0,0-3.888-2.916Zm-9.172,44.033a25.147,25.147,0,0,1-5.177-3.872c-6.429-6.171-10.453-16.054-10.548-25.646-.114-18.471,13.434-28.07,26.227-20.981a25.01,25.01,0,0,1,5.249,3.944c6.407,6.155,10.432,16.04,10.473,25.634.079,18.421-13.45,28-26.224,20.921Zm43.575-15.694c2.226,1.236,3.555,4.475,2.951,7.266l-2.325,10.821c-.6,2.757-2.883,3.995-5.113,2.761l-1.139-.634a3.193,3.193,0,0,0-4.505,1.244,34.335,34.335,0,0,1-2.071,3.073,6.384,6.384,0,0,0-.462,6.125l.6,1.468c1.146,2.8.459,5.983-1.517,7.052l-7.835,4.233a3.233,3.233,0,0,1-3.175-.115,6.055,6.055,0,0,1-2.542-3.058l-.606-1.433a6,6,0,0,0-2.519-3.019,3.664,3.664,0,0,0-1.881-.482c-1.108,0-2.233-.038-3.349-.141-1.79-.171-3.284,1.1-3.74,3.213l-.3,1.411c-.6,2.757-2.884,3.994-5.113,2.761l-8.734-4.843a6.982,6.982,0,0,1-2.963-7.237l.3-1.407a7.376,7.376,0,0,0-1.707-6.232c-.941-1.035-1.818-2.105-2.689-3.2a5.454,5.454,0,0,0-1.666-1.487,3.2,3.2,0,0,0-3.144-.118l-1.024.527a3.235,3.235,0,0,1-3.178-.11,6.072,6.072,0,0,1-2.542-3.057l-4.539-11.094c-1.142-2.794-.455-5.984,1.516-7.051l1.035-.561c1.537-.83,2.322-2.931,2-5.276q-.314-2.23-.45-4.471a6.766,6.766,0,0,0-3.069-5.438l-1.139-.634a6.976,6.976,0,0,1-2.962-7.233l2.329-10.82c.6-2.792,2.89-4.029,5.117-2.792l1.138.63a3.186,3.186,0,0,0,4.505-1.241,32.681,32.681,0,0,1,2.075-3.071,6.336,6.336,0,0,0,.451-6.1l-.6-1.464c-1.135-2.825-.456-5.984,1.524-7.081l7.835-4.237a3.247,3.247,0,0,1,3.176.113,6.078,6.078,0,0,1,2.544,3.058l.6,1.464a5.987,5.987,0,0,0,2.519,3.019,3.624,3.624,0,0,0,1.881.485,27.493,27.493,0,0,1,3.353.11c1.786.2,3.276-1.065,3.733-3.18l.3-1.413c.6-2.79,2.889-4.026,5.116-2.79l8.738,4.843c2.227,1.236,3.553,4.476,2.95,7.262l-.3,1.412a7.281,7.281,0,0,0,1.693,6.186q1.409,1.553,2.706,3.251a5.44,5.44,0,0,0,1.666,1.481,3.2,3.2,0,0,0,3.14.118l1.035-.558a3.23,3.23,0,0,1,3.175.114,6.061,6.061,0,0,1,2.545,3.056l4.536,11.094c1.139,2.825.458,5.985-1.52,7.081l-1.035.558c-1.537.831-2.321,2.935-1.988,5.249.2,1.486.357,2.977.451,4.468a6.757,6.757,0,0,0,3.069,5.442Z" transform="translate(-2168.497 -958.721)" fill="#fffcf1" fill-rule="evenodd" opacity="0.5"/>
              </g>
            </g>
          </g>
          <g id="Group_2585" data-name="Group 2585" transform="translate(142.9 19.241)">
            <path id="Path_10366" data-name="Path 10366" d="M2591.9,570.127,2528.957,539.7l-24.843,155.453-3.2,21.84,65.446,35.315c11.371,6.3,22.222.264,24.231-13.449L2608.845,606.4C2610.859,592.687,2603.268,576.428,2591.9,570.127Z" transform="translate(-2415.025 -497.27)" fill-rule="evenodd" opacity="0.5" fill="url(#linear-gradient-10)" style="mix-blend-mode: multiply;isolation: isolate"/>
            <g id="Group_2584" data-name="Group 2584">
              <path id="Path_10367" data-name="Path 10367" d="M2546.924,581.419,2527.31,708.134l2.052.25,5.6-2.174c6.135-2.415,9.354-8.8,10.253-15.013l16.2-115.432a.433.433,0,0,0,.008-.062c1.286-9.058-1.437-18.488-6.418-26.055a30.322,30.322,0,0,0-10.54-10.163l-120.368-65.411c-4.267-2.422-9.268-3.323-13.949-1.557l-4.933,1.927c-2.482.933-3.25,1.68-3.233,1.833C2404.3,497.98,2550.19,559.158,2546.924,581.419Z" transform="translate(-2377.723 -471.594)" fill="#d0e7ff" fill-rule="evenodd"/>
              <path id="Path_10368" data-name="Path 10368" d="M2524.138,543.04l-120.364-65.412c-4.984-2.762-9.864-3.151-13.941-1.562-5.226,2.035-9.137,7.323-10.265,15.028l-16.2,115.436c-2.009,13.717,5.551,29.958,16.919,36.261l120.37,65.411c11.37,6.3,22.222.265,24.23-13.448l16.194-115.438C2543.1,565.6,2535.507,549.341,2524.138,543.04Z" transform="translate(-2363.048 -472.928)" fill-rule="evenodd" fill="url(#linear-gradient-11)"/>
              <path id="Path_10369" data-name="Path 10369" d="M2508.969,690.545l-120.926-64.908c-2.792-1.5-5.456.044-6,3.506-.526,3.348,1.287,7.288,4.077,8.79l120.921,64.906c2.79,1.5,5.508-.022,6.049-3.484.52-3.339-1.339-7.312-4.124-8.81Zm5.406-35.139c2.785,1.5,4.643,5.471,4.124,8.81-.541,3.463-3.258,4.985-6.049,3.485l-120.921-64.907c-2.79-1.5-4.6-5.442-4.075-8.79.541-3.462,3.2-5,6-3.506l120.926,64.908Zm12.439-79.683-120.926-64.907c-2.785-1.5-5.454.044-5.973,3.388l-1.347,8.595c-.518,3.345,1.295,7.288,4.079,8.787l120.926,64.908c2.784,1.493,5.5-.021,6.027-3.367l1.339-8.6a9.05,9.05,0,0,0-4.124-8.809Zm-7,44.823a8.986,8.986,0,0,1,4.135,8.756c-.554,3.524-3.259,4.978-6.042,3.48l-120.926-64.908a8.891,8.891,0,0,1-4.09-8.722c.554-3.521,3.213-5.005,6-3.514Z" transform="translate(-2370.177 -486.164)" fill="#fffcf1" fill-rule="evenodd"/>
            </g>
          </g>
          <g id="Group_2586" data-name="Group 2586" transform="translate(645.412 458.352)">
            <path id="Path_10370" data-name="Path 10370" d="M3320.884,1276.026l-14.308,88.25,2.23.271,6.085-2.363c6.671-2.627,10.172-9.574,11.149-16.325l10.592-75.983a.394.394,0,0,0,.009-.066c1.4-9.85-1.562-20.1-6.979-28.332a32.972,32.972,0,0,0-11.461-11.052l-93.44-51.294c-4.64-2.635-10.076-3.614-15.167-1.694l-5.365,2.1c-2.7,1.014-3.534,1.825-3.517,1.993C3203.244,1205.126,3324.436,1251.82,3320.884,1276.026Z" transform="translate(-3181.365 -1176.433)" fill="#d0e7ff" fill-rule="evenodd"/>
            <path id="Path_10371" data-name="Path 10371" d="M3300.355,1234.292,3206.92,1183c-5.419-3-10.726-3.427-15.159-1.7-5.684,2.214-9.936,7.963-11.163,16.341l-10.591,75.986c-2.186,14.914,6.035,32.576,18.4,39.431l93.44,51.3c12.367,6.852,24.166.29,26.351-14.622l10.588-75.99C3320.972,1258.826,3312.718,1241.145,3300.355,1234.292Z" transform="translate(-3169.655 -1177.885)" fill="#fff" fill-rule="evenodd"/>
            <path id="Path_10372" data-name="Path 10372" d="M3267.143,1269.011a7.463,7.463,0,0,1,.771,4.348,28.549,28.549,0,0,1-1.7,5.563l-19.909,55.3c-.644,1.848-1.232,3.255-1.658,4.265a3.386,3.386,0,0,1-1.8,1.931c-.689.306-1.642.1-2.874-.666-2.985-1.847-4.305-4.459-3.93-7.625a39.232,39.232,0,0,1,1.646-5.765l19.855-55.327a19.96,19.96,0,0,1,2.672-5.716c.722-.9,1.975-.784,3.653.254a8.347,8.347,0,0,1,3.272,3.443Zm5.314,14.364-1.823,15.379,29.416,34.118-32.973-4.175-1.831,15.445,47.447,3.709,1.553-13.09-41.789-51.386Zm-82.933-11.732,41.8,51.44,1.831-15.445-29.276-34.336,32.823,4.459,1.849-15.577L3191.1,1258.4Z" transform="translate(-3177.146 -1207.334)" fill-rule="evenodd" fill="url(#linear-gradient-12)"/>
          </g>
          <g id="Group_2593" data-name="Group 2593" transform="translate(399.763 510.117)">
            <g id="Group_2589" data-name="Group 2589">
              <path id="Path_10373" data-name="Path 10373" d="M2793.649,1272.909c1.68-11.487,10.429-16.563,19.539-11.312l135.428,76.365c9.1,5.244,15.129,18.831,13.45,30.318l-18.014,122.592c-1.679,11.486-10.439,16.557-19.541,11.313l-135.427-76.365c-9.113-5.25-15.131-18.833-13.45-30.318Z" transform="translate(-2775.353 -1259.525)" fill="#fff" fill-rule="evenodd"/>
              <g id="Group_2588" data-name="Group 2588" transform="translate(14.096 19.808)">
                <g id="Group_2587" data-name="Group 2587" transform="translate(20.679 53.101)">
                  <path id="Path_10374" data-name="Path 10374" d="M2831.171,1441.993l47.242-65.438,9.16,69.392,23.014-25.017,13.553,74.2Z" transform="translate(-2831.171 -1376.555)" fill-rule="evenodd" fill="url(#linear-gradient-13)"/>
                  <path id="Path_10375" data-name="Path 10375" d="M2950.146,1381.123c5.051,1.029,8.855,6.942,8.494,13.208s-4.749,10.511-9.8,9.482-8.855-6.942-8.5-13.207S2945.093,1380.094,2950.146,1381.123Z" transform="translate(-2872.322 -1378.219)" fill="#ffdb59" fill-rule="evenodd"/>
                </g>
                <path id="Path_10376" data-name="Path 10376" d="M2813.18,1302.44c1.4-9.544,8.665-13.762,16.236-9.4l112.525,63.45c7.562,4.359,12.571,15.647,11.174,25.192l-14.967,101.859c-1.4,9.543-8.673,13.758-16.237,9.4l-112.523-63.451c-7.571-4.362-12.572-15.648-11.176-25.192Z" transform="translate(-2797.978 -1291.32)" fill-rule="evenodd" opacity="0.2" fill="url(#linear-gradient-14)"/>
              </g>
            </g>
            <g id="Group_2592" data-name="Group 2592" transform="translate(182.768 106.152)">
              <path id="Path_10377" data-name="Path 10377" d="M3087.019,1443.3c1.68-11.488,10.429-16.564,19.539-11.313l135.428,76.365c9.1,5.245,15.129,18.832,13.45,30.319l-18.014,122.592c-1.68,11.486-10.439,16.557-19.542,11.314l-135.427-76.365c-9.112-5.251-15.13-18.833-13.45-30.319Z" transform="translate(-3068.723 -1429.915)" fill="#fff" fill-rule="evenodd"/>
              <g id="Group_2591" data-name="Group 2591" transform="translate(14.095 19.808)">
                <g id="Group_2590" data-name="Group 2590" transform="translate(20.68 53.102)">
                  <path id="Path_10378" data-name="Path 10378" d="M3124.542,1612.383l47.242-65.438,9.16,69.392,23.014-25.017,13.553,74.2Z" transform="translate(-3124.542 -1546.946)" fill-rule="evenodd" fill="url(#linear-gradient-15)"/>
                  <path id="Path_10379" data-name="Path 10379" d="M3243.516,1551.513c5.051,1.029,8.855,6.942,8.495,13.208s-4.749,10.511-9.8,9.482-8.855-6.942-8.494-13.208S3238.464,1550.484,3243.516,1551.513Z" transform="translate(-3165.693 -1548.61)" fill="#ffdb59" fill-rule="evenodd"/>
                </g>
                <path id="Path_10380" data-name="Path 10380" d="M3106.551,1472.83c1.4-9.544,8.664-13.763,16.234-9.4l112.525,63.45c7.562,4.358,12.571,15.647,11.175,25.192l-14.967,101.859c-1.4,9.543-8.673,13.757-16.237,9.4l-112.524-63.451c-7.571-4.362-12.572-15.648-11.176-25.191Z" transform="translate(-3091.348 -1461.709)" fill-rule="evenodd" opacity="0.2" fill="url(#linear-gradient-16)"/>
              </g>
            </g>
          </g>
          <g id="Group_2599" data-name="Group 2599" transform="translate(389.346)">
            <path id="Path_10381" data-name="Path 10381" d="M2765.349,454.211c-12.053,7.075-6.279,23.421,4.672,40.7,15.541,24.518-22.07,52.114,29.051,66.075-5.325-14.962,16.828-20.439,27.714-40.871,12.56-23.575,5.6-47.222-10.539-67.36C2803.108,436.356,2779.073,436.566,2765.349,454.211Z" transform="translate(-2758.63 -440.709)" fill-rule="evenodd" fill="url(#linear-gradient-17)"/>
            <g id="Group_2595" data-name="Group 2595" transform="translate(26.605 41.195)">
              <path id="Path_10382" data-name="Path 10382" d="M2807.4,698.361l2.949,11.112c.925,2.382,1.481,3.022,4.9,1.48,1.866-.906,1.28-4.8.763-7.637a16.709,16.709,0,0,1,.127-7.016,5.755,5.755,0,0,1,2.146-2.922c2.042-1.641,4.433-2.737,2.962-7.951-.768-2.723-.583-4.75-.641-7.577l-7.123-.469c.163,6.355-2.659,10.642-5.6,15.99C2806.465,695.955,2806.777,695.471,2807.4,698.361Z" transform="translate(-2803.424 -571.13)" fill-rule="evenodd" fill="url(#linear-gradient-18)"/>
              <g id="Group_2594" data-name="Group 2594">
                <path id="Path_10383" data-name="Path 10383" d="M2830.679,563.523l-.052-.356a6.036,6.036,0,0,0-.226-1.529c-1.809-12.086-5.488-32.452-8.353-43.075-5-18.548-20.876-12.138-20.712-1.068.156,10.473,9.9,33.151,12.14,42.977-.8,7.159-3.786,42.911-2.752,49.156.2,1.19.719,1.964.662,3.274a11.877,11.877,0,0,1-.607,2.582c2.806.372,5.609.769,8.366,1.419a17.538,17.538,0,0,1,.418-2.783c.479-1.345,1.713-2.033,2.269-3.173,2.736-5.6,7.26-34.99,8.505-44.555A11.863,11.863,0,0,0,2830.679,563.523Z" transform="translate(-2801.335 -506.833)" fill-rule="evenodd" fill="url(#linear-gradient-19)"/>
                <path id="Path_10384" data-name="Path 10384" d="M2828.675,580.961c1.063-2.565,2.265-10.568,2.253-14.117-.026-7.366-2.809-13.461-3.671-18.139l-25.738-25.619c.163,4.8,5.763,17.58,8.057,27.016C2813.156,564.823,2820.948,577.5,2828.675,580.961Z" transform="translate(-2801.404 -512.961)" fill="#3469c0" fill-rule="evenodd" opacity="0.35" style="mix-blend-mode: multiply;isolation: isolate"/>
              </g>
            </g>
            <path id="Path_10385" data-name="Path 10385" d="M2908.118,575.243c-3.629,12-20.667,21.451-37.739,17.692-4.076-4.532-5.286-3.123-9.014-6.778-3.393-3.327-7.581-7.875-13.44-13.817-3.257-5.112-16.105-7.2-21.774-9.428-6.4-2.513-12.088-7.748-14.736-17.922-1.283-4.934-6.875-20.032-8.886-25.064-5.812-14.549,6.8-19.986,15.324-14.6,5.461,2.278,17.5,5.139,23.453,6.249a98.819,98.819,0,0,0,10.405,1.547c7.084.685,14.777,5.856,20.277,10.236C2886.772,535.13,2906.822,558.791,2908.118,575.243Z" transform="translate(-2774.622 -464.302)" fill-rule="evenodd" fill="url(#linear-gradient-20)"/>
            <g id="Group_2597" data-name="Group 2597" transform="translate(12.117 26.52)">
              <path id="Path_10386" data-name="Path 10386" d="M2828.955,497.139a36.158,36.158,0,0,0,10.15,17.121c-1.8,6.458-14.132,11.114-18.055,6.75a22.824,22.824,0,0,0-1.142-3.424c-.647-1.895-1.291-3.555-1.844-4.884Z" transform="translate(-2793.154 -488.504)" fill-rule="evenodd" fill="url(#linear-gradient-21)"/>
              <g id="Group_2596" data-name="Group 2596">
                <path id="Path_10387" data-name="Path 10387" d="M2778.08,483.278a20.933,20.933,0,0,0,6.4,13.273,6.155,6.155,0,0,1,1.784,2.965c1.6,5.865,2.866,7.061,6.627,9.742,3.657,2.609,5.027,4.413,7.112,4.633,2.141.224,4.121-.938,5.69-2.06,3.213-2.3,6.814-8.592,8.5-12.748,1.253-3.08.476-3.854-.317-6.776.927-5.378-2.792-5.718-4.03-5.053-3.552,1.906-1.167,5.842-2.346,8.105C2795.019,498.117,2782.1,486.923,2778.08,483.278Z" transform="translate(-2778.08 -483.278)" fill="#ffa698" fill-rule="evenodd"/>
                <path id="Path_10388" data-name="Path 10388" d="M2778.08,483.278c6.937,11.547,22.2,14.462,29.425,12.082C2795.019,498.117,2782.1,486.923,2778.08,483.278Z" transform="translate(-2778.08 -483.278)" fill="#ff9080" fill-rule="evenodd"/>
              </g>
            </g>
            <path id="Path_10389" data-name="Path 10389" d="M2889.636,599.085a2.781,2.781,0,0,1-.314.062c-1.887-1.248-3.257-1.4-5.782-3.877-3.394-3.327-7.581-7.875-13.44-13.817-1.66-2.605-5.812-4.426-10.233-5.879.7-11.945.389-39.239,4.307-42.791,5.4-4.9,12.84-8.159,19.048-1.781C2894.939,543.042,2883.273,587.6,2889.636,599.085Z" transform="translate(-2796.797 -473.416)" fill="#3469c0" fill-rule="evenodd" opacity="0.35" style="mix-blend-mode: multiply;isolation: isolate"/>
            <g id="Group_2598" data-name="Group 2598" transform="translate(65.496 102.964)">
              <path id="Path_10390" data-name="Path 10390" d="M2876.63,648.52l-7.422-27.929,5.13-4.571,46.846,26.293-4.358,4.888-20.348,13.615Z" transform="translate(-2865.814 -609.766)" fill="#4a9ff8" fill-rule="evenodd"/>
              <path id="Path_10391" data-name="Path 10391" d="M2867.176,616.885l-3.415-10.9,58.461,32.449-7.531,5.039Z" transform="translate(-2863.761 -605.982)" fill="#d0e7ff" fill-rule="evenodd"/>
            </g>
          </g>
          <g id="Group_2608" data-name="Group 2608" transform="translate(333.868 154.202)">
            <path id="Path_10392" data-name="Path 10392" d="M2698.239,713.972c3.032-22.377,20.009-32.013,37.917-21.474L2921.1,800.482c17.888,10.528,29.957,37.248,26.924,59.625l-28.188,213.3c-3.032,22.375-20.029,32-37.92,21.474L2696.975,986.9c-17.911-10.538-29.959-37.249-26.928-59.623Z" transform="translate(-2669.581 -688.226)" fill-rule="evenodd" opacity="0.5" fill="url(#linear-gradient-22)" style="mix-blend-mode: multiply;isolation: isolate"/>
            <g id="Group_2607" data-name="Group 2607" transform="translate(2.503 0.593)">
              <path id="Path_10393" data-name="Path 10393" d="M2709.993,713.1c.328-2.418.8-13.226,3.707-15.423,3.914-2.967,11.056-7.28,13.169-7.846,5.509-1.473,11.866-.5,18.356,3.315L2918.046,793.3c16.622,9.783,27.836,34.612,25.018,55.4l-26.193,198.206c-.984,7.261-3.553,13.079-7.184,17.155-2.457,2.759-8.2,6.619-12.991,9.1-4.951,2.561-11.918-4.448-15.06-6.3L2708.82,966.71c-16.645-9.792-27.84-34.612-25.022-55.4Z" transform="translate(-2677.28 -689.178)" fill="#d0e7ff" fill-rule="evenodd"/>
              <path id="Path_10394" data-name="Path 10394" d="M2700.228,719.922c2.818-20.794,18.593-29.747,35.232-19.955l171.854,100.341c16.621,9.782,27.836,34.611,25.018,55.4l-26.192,198.206c-2.818,20.791-18.612,29.735-35.236,19.953L2699.054,973.53c-16.643-9.792-27.838-34.612-25.021-55.4Z" transform="translate(-2673.598 -691.749)" fill="#fff" fill-rule="evenodd"/>
              <g id="Group_2601" data-name="Group 2601" transform="translate(23.913 4.249)">
                <path id="Path_10395" data-name="Path 10395" d="M2714.7,719.922c2.818-20.794,18.593-29.747,35.233-19.955l171.853,100.341c16.621,9.782,27.836,34.611,25.018,55.4L2944.12,875.4l-232.138-135.54Z" transform="translate(-2711.982 -695.998)" fill-rule="evenodd" fill="url(#linear-gradient-23)"/>
                <g id="Group_2600" data-name="Group 2600" transform="translate(23.083 24.546)">
                  <path id="Path_10396" data-name="Path 10396" d="M2756.3,735.554c3.785.9,6.677,5.432,6.458,10.129s-3.466,7.776-7.251,6.879-6.677-5.432-6.458-10.13S2752.511,734.656,2756.3,735.554Z" transform="translate(-2749.033 -735.398)" fill="#fff" fill-rule="evenodd"/>
                  <path id="Path_10397" data-name="Path 10397" d="M2788.725,755.77c3.785.9,6.676,5.433,6.458,10.13s-3.466,7.776-7.252,6.878-6.677-5.432-6.458-10.129S2784.939,754.872,2788.725,755.77Z" transform="translate(-2761.259 -743.02)" fill="#fff" fill-rule="evenodd"/>
                  <path id="Path_10398" data-name="Path 10398" d="M2821.154,775.986c3.785.9,6.676,5.433,6.458,10.13s-3.466,7.777-7.252,6.878-6.677-5.432-6.457-10.129S2817.368,775.088,2821.154,775.986Z" transform="translate(-2773.485 -750.641)" fill="#fff" fill-rule="evenodd"/>
                </g>
              </g>
              <g id="Group_2606" data-name="Group 2606" transform="translate(15.14 86.772)">
                <g id="Group_2604" data-name="Group 2604" transform="translate(14.283)">
                  <g id="Group_2602" data-name="Group 2602">
                    <path id="Path_10399" data-name="Path 10399" d="M2754.487,829.181c17.545,4.159,30.945,25.179,29.929,46.946s-16.062,36.042-33.606,31.882-30.945-25.179-29.93-46.947S2736.942,825.02,2754.487,829.181Z" transform="translate(-2720.826 -828.46)" fill-rule="evenodd" opacity="0.2" fill="url(#linear-gradient-24)"/>
                    <path id="Path_10400" data-name="Path 10400" d="M2762.515,858.537c9.459,2.243,16.683,13.576,16.136,25.312s-8.66,19.432-18.119,17.19-16.684-13.576-16.137-25.312S2753.056,856.293,2762.515,858.537Z" transform="translate(-2729.701 -839.652)" fill-rule="evenodd" fill="url(#linear-gradient-25)"/>
                  </g>
                  <g id="Group_2603" data-name="Group 2603" transform="translate(68.898 37.707)">
                    <path id="Path_10401" data-name="Path 10401" d="M2839.039,894.236c.626-4.624,4.127-6.561,7.82-4.315l112.328,64.747c3.688,2.243,6.175,7.82,5.548,12.444l-1.215,9.147c-.627,4.623-4.132,6.558-7.82,4.316l-112.328-64.75c-3.693-2.245-6.175-7.819-5.549-12.443Z" transform="translate(-2833.796 -888.985)" fill="#955cf1" fill-rule="evenodd" opacity="0.2"/>
                    <path id="Path_10402" data-name="Path 10402" d="M2832.193,949.544c.37-2.731,2.438-3.874,4.618-2.549l66.332,38.234a7.982,7.982,0,0,1,3.276,7.348l-.717,5.4c-.371,2.731-2.44,3.873-4.619,2.548l-66.33-38.234a7.982,7.982,0,0,1-3.277-7.348Z" transform="translate(-2831.418 -910.647)" fill="#955cf1" fill-rule="evenodd" opacity="0.2"/>
                  </g>
                </g>
                <g id="Group_2605" data-name="Group 2605" transform="translate(0 81.358)">
                  <path id="Path_10403" data-name="Path 10403" d="M2711.906,962.876c.455-3.367,3.006-4.778,5.694-3.142l193.991,111.295c2.684,1.632,4.5,5.694,4.04,9.062l-.6,4.411c-.456,3.367-3.009,4.777-5.7,3.143L2715.343,976.35c-2.69-1.634-4.5-5.695-4.041-9.062Z" transform="translate(-2702.927 -959.052)" fill="#955cf1" fill-rule="evenodd" opacity="0.2"/>
                  <path id="Path_10404" data-name="Path 10404" d="M2705.4,1015.273c.455-3.367,3.006-4.778,5.694-3.142l193.99,111.294c2.685,1.633,4.5,5.694,4.04,9.063l-.6,4.41c-.456,3.368-3.009,4.777-5.7,3.144l-193.988-111.294c-2.691-1.635-4.5-5.695-4.041-9.063Z" transform="translate(-2700.472 -978.806)" fill="#955cf1" fill-rule="evenodd" opacity="0.2"/>
                  <path id="Path_10405" data-name="Path 10405" d="M2698.576,1065.188c.455-3.367,3.005-4.778,5.694-3.143l193.99,111.295c2.685,1.633,4.5,5.695,4.04,9.063l-.6,4.41c-.457,3.367-3.009,4.777-5.7,3.143l-193.989-111.294c-2.691-1.635-4.5-5.7-4.042-9.063Z" transform="translate(-2697.901 -997.624)" fill="#955cf1" fill-rule="evenodd" opacity="0.2"/>
                </g>
              </g>
            </g>
          </g>
          <g id="Group_2612" data-name="Group 2612" transform="translate(573.136 142.961)">
            <g id="Group_2609" data-name="Group 2609">
              <path id="Path_10406" data-name="Path 10406" d="M3087.081,687.893c.615-4.314-2.256-7.639-.383-10.5,2.023-3.088,8.9-5.3,11.879-6.373,4.221-1.521,9.189-1.026,14.25,1.87l206.336,117.971c12.046,6.893,20.078,24.81,17.918,39.978l-23.16,161.885c-1.059,7.432-4.37,12.838-8.89,15.606-2.762,1.691-10.323,4.926-13.748,4.51-2.409-.292-.577-3.667-3.114-5.117L3081.838,889.756c-12.062-6.9-20.08-24.81-17.921-39.977Z" transform="translate(-3057.383 -670.184)" fill="#d0e7ff" fill-rule="evenodd"/>
              <path id="Path_10407" data-name="Path 10407" d="M3077.156,691.852c2.16-15.169,13.688-21.9,25.748-15l206.335,117.971c12.047,6.893,20.079,24.81,17.918,39.978L3304,996.686c-2.16,15.167-13.7,21.891-25.751,15L3071.913,893.713c-12.061-6.9-20.08-24.809-17.92-39.977Z" transform="translate(-3053.641 -671.676)" fill-rule="evenodd" fill="url(#linear-gradient-26)"/>
            </g>
            <g id="Group_2610" data-name="Group 2610" transform="translate(6.856 187.972)">
              <path id="Path_10408" data-name="Path 10408" d="M3065.283,973.415c.187-1.317,1.186-1.879,2.229-1.252l228.842,131.218a3.777,3.777,0,0,1,1.549,3.522l-.607,3.995c-.187,1.317-1.186,1.878-2.228,1.252L3066.225,980.932a3.777,3.777,0,0,1-1.549-3.522Z" transform="translate(-3064.645 -971.907)" fill="#6d6afd" fill-rule="evenodd"/>
              <path id="Path_10409" data-name="Path 10409" d="M3065.474,973.648c.181-1.271,1.143-1.813,2.149-1.207l92.306,52.911a3.647,3.647,0,0,1,1.495,3.4l-.586,3.853c-.181,1.27-1.144,1.811-2.149,1.207L3066.383,980.9a3.643,3.643,0,0,1-1.495-3.4Z" transform="translate(-3064.726 -972.015)" fill="#b269eb" fill-rule="evenodd"/>
            </g>
            <g id="Group_2611" data-name="Group 2611" transform="translate(89.414 107.5)">
              <path id="Path_10410" data-name="Path 10410" d="M3205.819,846.951c.514-3.61,3.257-5.211,6.126-3.568l63.522,36.333c2.866,1.64,4.776,5.9,4.263,9.512l-8.571,60.441c-.514,3.609-3.261,5.209-6.127,3.569L3201.511,916.9c-2.87-1.642-4.777-5.9-4.263-9.511Z" transform="translate(-3197.164 -842.737)" fill-rule="evenodd" fill="url(#linear-gradient-27)"/>
              <path id="Path_10411" data-name="Path 10411" d="M3254.829,890.223c-11-6.29-21.5-.162-23.467,13.67s5.334,30.155,16.332,36.446,21.5.162,23.467-13.683S3265.816,896.508,3254.829,890.223Z" transform="translate(-3209.936 -859.707)" fill-rule="evenodd" fill="url(#linear-gradient-28)"/>
              <path id="Path_10412" data-name="Path 10412" d="M3250.792,902.5l-3.47,25.037,21.213.575Z" transform="translate(-3216.073 -865.269)" fill="#fff" fill-rule="evenodd"/>
            </g>
          </g>
          <g id="Group_2613" data-name="Group 2613" transform="translate(431.26 53.735)">
            <path id="Path_10413" data-name="Path 10413" d="M2844.839,695.856c-1.8,3.011-.853,9.532-1.44,12.634a50.547,50.547,0,0,1-2.759,9.06c-.379.8-12.344,11.427-13.037,10.892-1.578-1.217-2.6-9.607-.532-12.047,2.109-2.488,3.821-4.822,4.172-6.819.358-2.035.239-8.633,1.1-9.656,1.964-2.319,4.014-3.055,4.89-5.95Z" transform="translate(-2825.909 -589.924)" fill-rule="evenodd" fill="url(#linear-gradient-29)"/>
            <path id="Path_10414" data-name="Path 10414" d="M2874.314,592.293a18.17,18.17,0,0,0,.45-2.1c3.115-12.884,6.28-34.933,5.874-47.7-.31-9.754-5.058-18.012-16.5-14.833-3.518.976-7.587,3.651-8.107,8.281-.623,5.546.2,14.751.727,24.158.419,7.518.382,21.075.669,26.572-.049.168-.1.338-.142.513-3.662,7.294-12.193,31.112-13.98,38.84a14.909,14.909,0,0,0-.031,3.572,6.638,6.638,0,0,1-.926,2.871,17.4,17.4,0,0,0,7.845,4.042,21.1,21.1,0,0,1,1.6-2.827c.495-.758,2.787-1.475,3.68-2.544,4.742-5.68,17.255-31.656,18.785-38.563C2874.282,592.477,2874.3,592.385,2874.314,592.293Z" transform="translate(-2832.107 -526.961)" fill-rule="evenodd" fill="url(#linear-gradient-30)"/>
          </g>
          <g id="Group_2626" data-name="Group 2626" transform="translate(289.556 292.334)">
            <g id="Group_2625" data-name="Group 2625" transform="translate(38.926)">
              <g id="Group_2618" data-name="Group 2618" transform="translate(0 243.714)">
                <g id="Group_2614" data-name="Group 2614" transform="translate(0 207.942)">
                  <path id="Path_10416" data-name="Path 10416" d="M2655.875,1689.527c1.948-.043,8.519-6.219,14.742-3.1,7.474,3.745,21.667.428,28.829,2.149,1.276.306,3.77-.632,4.262.242,1.545,2.744,3.038,6.849-.758,9.533-2.792,1.975-8.771,4.591-12.692,5.98-4.16,1.475-11.283,3.8-16.057,4.545-5.287.828-7.7,1.168-9.679,2.7-2.829,1.424-5.751,2.036-7.382,1.776-3.488-.555-7.553-2.6-9.414-6.572-.594-1.271-.612-6.821.073-10.422.54-2.841,2.09-6.076,3.33-9.1Z" transform="translate(-2647.076 -1674.069)" fill="#fff" fill-rule="evenodd"/>
                  <path id="Path_10417" data-name="Path 10417" d="M2673.812,1668.5c-2.365,5.676-1.638,14.46-7.242,17.51-3.745,2.037-9.612,2.057-12.168-3.765-1.425-3.247.468-8.792.048-15.92Z" transform="translate(-2649.727 -1666.325)" fill="#ffa495" fill-rule="evenodd"/>
                  <path id="Path_10418" data-name="Path 10418" d="M2672.581,1681.423c4.294,1.248,16.149.414,23.643,1.02,3.221.261,6.11.237,7.616,3.162,1.386,2.69.659,5-2.477,7.215a53.15,53.15,0,0,1-11.451,5.619c-4.161,1.473-11.283,3.8-16.056,4.544-5.288.827-7.7,1.168-9.679,2.7-2.829,1.424-5.752,2.037-7.383,1.776a13,13,0,0,1-9.413-6.986c-.594-1.271-.612-6.405.073-10.007a18.62,18.62,0,0,1,.55-2.12c.591-5.641,2.453-7.921,4.208-6.955,2.4,1.322,3.311,3.7,4.225,5.654a5.516,5.516,0,0,0,3.266,3.115c2.873.906,5.5-.7,7.2-3.163a20.3,20.3,0,0,0,1.972-5.715c.009-.192.012-.384.008-.573.563-4.931,2.963-4.5,2.6-3.462A4.243,4.243,0,0,0,2672.581,1681.423Z" transform="translate(-2646.937 -1670.456)" fill="#193161" fill-rule="evenodd"/>
                  <path id="Path_10419" data-name="Path 10419" d="M2739.717,1689.853c-.057,1.907,2.864,2.087,2.019,5.436,1.405-1.376-.555-5.328-1.422-5.928C2739.958,1689.114,2739.656,1689.013,2739.717,1689.853Z" transform="translate(-2684.311 -1675.535)" fill="#fff" fill-rule="evenodd"/>
                </g>
                <g id="Group_2615" data-name="Group 2615" transform="translate(48.431 184.836)">
                  <path id="Path_10420" data-name="Path 10420" d="M2739.626,1647.811c1.815-.711,5.862-8.771,12.776-7.985,2.79.317,7.276-.411,11.83-1.7,7.26-2.064,17.376-8.554,19.1-7.492,3.761,2.314,4.062,6.534,1.422,10.361a53.128,53.128,0,0,1-8.82,9.215c-3.4,2.816-8.221,7.123-12.447,9.468-3.993,2.215-5.319,2.018-8.161,5.86a13.336,13.336,0,0,1-6.32,4c-4.151.812-10.179-1.854-12.349-4.637-1.379-4.465-3.774-8.693-2.24-15.394Z" transform="translate(-2730.411 -1628.792)" fill="#fff" fill-rule="evenodd"/>
                  <path id="Path_10421" data-name="Path 10421" d="M2746.847,1627.63c-.111,6.148,3.794,14.049-.3,18.946-2.734,3.272-8.183,5.446-12.7.973-2.52-2.5-2.8-8.349-5.809-14.823Z" transform="translate(-2728.042 -1627.63)" fill="#ffa495" fill-rule="evenodd"/>
                  <path id="Path_10422" data-name="Path 10422" d="M2761.783,1635.8q.62-.162,1.241-.339c7.26-2.064,16.962-7.066,18.688-6,3.763,2.314,4.477,5.046,1.837,8.873a53.079,53.079,0,0,1-8.82,9.215c-3.4,2.816-8.222,7.123-12.447,9.468-3.993,2.215-5.319,2.018-8.16,5.86a13.35,13.35,0,0,1-6.321,4c-4.152.81-10.361-1.88-12.53-4.662-1.026-3.323-2.433-6.489-2.547-10.667-.6-5.468-.229-8.25,2.151-8.181,4.426.128,6.25,2.46,8.079,3.6,3.937,2.455,6.573-.717,7.218-4.64a22.939,22.939,0,0,0-.361-5.186q-.093-.274-.2-.538c-1.289-4.792,1.1-5.273,1.143-4.174a4.109,4.109,0,0,0,3.652,4.186C2756.8,1636.977,2759.839,1635.97,2761.783,1635.8Z" transform="translate(-2729.825 -1628.309)" fill="#193161" fill-rule="evenodd"/>
                  <path id="Path_10423" data-name="Path 10423" d="M2814.056,1630.094c.77,1.745,3.482.649,4.164,4.035.675-1.848-2.8-4.568-3.838-4.737C2813.957,1629.323,2813.64,1629.362,2814.056,1630.094Z" transform="translate(-2762.616 -1628.33)" fill="#fff" fill-rule="evenodd"/>
                </g>
                <g id="Group_2616" data-name="Group 2616" transform="translate(20.29)">
                  <path id="Path_10424" data-name="Path 10424" d="M2723.679,1336.859c1.59,17.817,10.52,74.719,8.036,90.341-3.735,23.49-2.67,51.87-2.627,76.8-.63,10.476-15.034,15.95-19.226,9.294-3.367-22.279-8.155-41.8-10.1-54.177-2.181-13.863-1.461-30.708,2.057-39.819-1.443-9.953-8.23-35.628-13.9-53.422-2.046-6.421-13.637-27.166-1.64-47.787Z" transform="translate(-2680.916 -1318.091)" fill-rule="evenodd" fill="url(#linear-gradient-31)"/>
                  <path id="Path_10425" data-name="Path 10425" d="M2748.263,1618.232c.013,1.849-.057,4.665-.053,6.48-.63,10.476-15.215,16.158-19.407,9.5-.248-1.643-.608-3.27-.869-4.879C2733.571,1635.409,2744.619,1627.517,2748.263,1618.232Z" transform="translate(-2699.857 -1439.008)" fill-rule="evenodd" fill="url(#linear-gradient-32)"/>
                  <path id="Path_10426" data-name="Path 10426" d="M2741.833,1432.489c-4.7,23.557-17.98,55.026-25.232,78.712-3.774-20.295-13.221-54.856-5.05-76.01-.821-5.669-3.377-16.437-6.472-27.944,6.286-11.917.278-21.429,3.246-38.212,16.642-2.9-8.475-23.213,26.74-1.819C2738.216,1392.5,2741.173,1408.393,2741.833,1432.489Z" transform="translate(-2690.65 -1333.982)" fill="#1e2353" fill-rule="evenodd" opacity="0.3" style="mix-blend-mode: multiply;isolation: isolate"/>
                </g>
                <g id="Group_2617" data-name="Group 2617" transform="translate(2.598 10.799)">
                  <path id="Path_10427" data-name="Path 10427" d="M2710.829,1446.228c-9.6,21.733-27.313,64.368-36.734,91.041-4.874,7.084-22.252,6.346-22.22-.261,3.837-22.3,8.347-56.7,16.352-76.255,2.451-5.985,11.492-20.389,14.749-24.663,2.533-9.843,5.707-36.426,8.158-50.812-2.2-11.9-11.8-31.806,6.647-49.1,7.443,5.294,30.455,8.6,40.89,2.71C2740.356,1385.9,2728.814,1405.512,2710.829,1446.228Z" transform="translate(-2651.524 -1336.176)" fill-rule="evenodd" fill="url(#linear-gradient-33)"/>
                  <path id="Path_10428" data-name="Path 10428" d="M2675.811,1665.155c-.42,1.166-1.255,3.521-1.649,4.635-5.018,7.292-22.908,6.533-22.874-.269q.285-1.653.574-3.389C2656.127,1670.48,2669.027,1670.538,2675.811,1665.155Z" transform="translate(-2651.288 -1468.711)" fill-rule="evenodd" fill="url(#linear-gradient-34)"/>
                </g>
              </g>
              <g id="Group_2620" data-name="Group 2620" transform="translate(18.394)">
                <g id="Group_2619" data-name="Group 2619" transform="translate(73.5)">
                  <path id="Path_10429" data-name="Path 10429" d="M2829.7,911.87c-.683,1.44-1.338,2.9-2.05,4.322l-2.937,5.873c-.626-2.879-2.924-3.981-4.692-2.529a5.031,5.031,0,0,0-1.431,1.92c-.281-.785-2.505-2.556-5.514,1.717a3.3,3.3,0,0,0-3.655,2.107,23.823,23.823,0,0,0-1.26,3.078,12.346,12.346,0,0,0-.877,4.172c.019,2.832.142,5.9.06,9.287-.087,3.671-4.251,8.322-6.514,11l13.632,4.321a75.593,75.593,0,0,1,5.307-6.635c2.138-2.167,4.843-2.426,6.883-4.1,1.143-.937,1.8-2.177,3.738-4.924,1.607-2.276,2.486-4.737,4.019-7.226,1.492-2.578,1.4-2.009,1.554-4.9a52.3,52.3,0,0,1,1.022-5.792c-2.8-1.4-5.007,2.061-4.987,5.43-1.6.9-2.656,3.113-3.02,4.1-2.226-2.911-.9-4.129,0-7.868a37.68,37.68,0,0,0,3.207-7.5c.435-1.152.869-2.344,1.336-3.633.634-2.094-.177-3.582-.81-3.994C2832.185,909.751,2830.834,909.907,2829.7,911.87Z" transform="translate(-2800.828 -909.95)" fill-rule="evenodd" fill="url(#linear-gradient-35)"/>
                  <path id="Path_10430" data-name="Path 10430" d="M2841.975,930.225c-1.991.287-3.4,3.033-3.379,5.722a8.15,8.15,0,0,0-2.941,3.9,18.476,18.476,0,0,1,3.581-3.566,8.537,8.537,0,0,1,2.74-6.052Zm-10.413-1.709-.253.505a5.167,5.167,0,0,0-.742-1.8,7.287,7.287,0,0,1-1.943,4.323,4.867,4.867,0,0,0,2.938-3.024Zm-6.394-.149a1.687,1.687,0,0,0-.721-.733,11.556,11.556,0,0,1-1.531,3.906,6.533,6.533,0,0,0,2.252-3.172Zm-5.432,1.674-.063.088a4.766,4.766,0,0,0-.872-.02,8.874,8.874,0,0,1-1.592,4.367A7.065,7.065,0,0,0,2819.736,930.041Z" transform="translate(-2807.427 -916.906)" fill="#ff8978" fill-rule="evenodd"/>
                </g>
                <path id="Path_10431" data-name="Path 10431" d="M2728.634,1013.7c6.859-11.954,12.232-26.927,21.818-39.068.8-1.011,2.677-1.786,3.366-2.851q1.5-2.319,2.99-4.554a21.261,21.261,0,0,1,13.8,6.219q-.807,2.4-1.586,4.779c-.607,1.847.556,5.8.031,7.643a307.6,307.6,0,0,1-16.807,45.789c-9.509,12.263-51.757,90.987-73.845,62.421-1.989-10.161.7-18.613,5.813-26.837,2.829-4.551,7.132-8.521,10.026-11.524C2701.184,1048.51,2718.206,1024.45,2728.634,1013.7Z" transform="translate(-2677.74 -933.024)" fill-rule="evenodd" fill="url(#linear-gradient-36)"/>
              </g>
              <path id="Path_10432" data-name="Path 10432" d="M2681.539,1199.739c1.546,13.941-2.646,27.65,1.622,40.377.191,1.315.312,6.475.538,7.878,2.811,16.486,37.683,33.17,66.768,17.351.161-2.044-.025-4.181.134-7.967-.538-3.535.989-7.327.98-9.483-.042-8.972-2.835-13.56-1.5-23.544,2.725-20.312,13.978-39.832,7.753-55.812-1.336-3.43-3.677-5.092-6.329-7.222-6.874-5.522-42.423-23.624-53.2-24.9C2667.022,1132.36,2679.86,1184.615,2681.539,1199.739Z" transform="translate(-2659.256 -1001.095)" fill-rule="evenodd" fill="url(#linear-gradient-37)"/>
              <path id="Path_10433" data-name="Path 10433" d="M2791.674,1225.744c4.034-14.926,9.3-29.017,4.6-41.088-1.335-3.43-3.677-5.092-6.328-7.222-6.874-5.522-5.962,9.327-16.738,8.05C2771.135,1205.325,2780.945,1223.375,2791.674,1225.744Z" transform="translate(-2697.696 -1017.213)" fill="#6266d7" fill-rule="evenodd" opacity="0.35" style="mix-blend-mode: multiply;isolation: isolate"/>
              <g id="Group_2623" data-name="Group 2623" transform="translate(25.12 75.914)">
                <path id="Path_10434" data-name="Path 10434" d="M2736.614,1095.622a76.676,76.676,0,0,0,.792,17.119c-10.189-.332-24.349-3-25.895-10.583.072-.91.137-1.832.183-2.738a3.6,3.6,0,0,0-.416-.326c-3.653-2.43-9.7-4.233-13.582-8.675-6.209-7.1-9.508-16.638-4.636-26.237,8.9-17.53,30.42-17.828,42.407-3.653,2.341,2.768.626,5.635,1.958,8.307.26.524,1.218.755,2.329,1.672,1.535,1.268,6.006,12.226,5.891,17.947-.046,2.3-5.34,5.549-7.689,6.821A6.268,6.268,0,0,1,2736.614,1095.622Z" transform="translate(-2689.694 -1042.455)" fill="#ffa698" fill-rule="evenodd"/>
                <path id="Path_10435" data-name="Path 10435" d="M2748.691,1120.946a76.691,76.691,0,0,0,.792,17.119c-10.189-.332-24.349-3-25.895-10.583.072-.91.137-1.832.183-2.738-.138-.124-.294-.211-.416-.326-7.743-7.249,2.614-15.556,15.7-8.4A10.15,10.15,0,0,0,2748.691,1120.946Z" transform="translate(-2701.772 -1067.779)" fill-rule="evenodd" fill="url(#linear-gradient-38)"/>
                <path id="Path_10436" data-name="Path 10436" d="M2771.124,1091.447c-.046,1.006-4.216,2.524-5.961,2.76,1.189-10.829-9.118-12.484-7.565-23.056.933-6.354-5.6-8.652-3.037-13.3a29.694,29.694,0,0,1,6.385,5.675c2.34,2.768.626,5.635,1.958,8.307.26.524,1.218.755,2.329,1.672C2766.769,1074.768,2771.389,1085.731,2771.124,1091.447Z" transform="translate(-2715.173 -1045.447)" fill-rule="evenodd" fill="url(#linear-gradient-39)"/>
                <g id="Group_2621" data-name="Group 2621" transform="translate(38.456 39.092)">
                  <path id="Path_10437" data-name="Path 10437" d="M2756.858,1105.056c-.2-2.424-1.182-2.89-1.995-2.245-.891.707-1.656,2.805-1.411,5.3.4,4.024,4.125,7.627,6.695,4.373-2.81,1.49-4.135-2.112-4.255-4.656C2755.812,1106.1,2756.249,1104.651,2756.858,1105.056Z" transform="translate(-2753.406 -1102.548)" fill="#ffb49c" fill-rule="evenodd"/>
                  <path id="Path_10438" data-name="Path 10438" d="M2757.655,1109.342c1.5,1.133,2.186,1.9,2.162,2.533-.016.442-.386,1.107-1.7.642A5.714,5.714,0,0,1,2757.655,1109.342Z" transform="translate(-2755.098 -1105.285)" fill="#ff9d8e" fill-rule="evenodd"/>
                </g>
                <path id="Path_10439" data-name="Path 10439" d="M2721.722,1136.61c-3.015.929-5.831,4.03-5.28,6.018,3,12.266,25.483,15,39.464,12.05.168-.035-5.233-7.179-7.909-8.049C2739.2,1147.493,2724.437,1143.852,2721.722,1136.61Z" transform="translate(-2700.03 -1077.178)" fill="#726cde" fill-rule="evenodd"/>
                <g id="Group_2622" data-name="Group 2622">
                  <path id="Path_10440" data-name="Path 10440" d="M2709.616,1095.752c-3.727-3.978-10.035-5.877-14.082-10.5-3.991-4.564-8.362-11.569-5.694-18.764-4.7-14.784,11.365-26.507,24.895-29.172,9.683-1.907,15.474,8.477,11.265,15.5a14.171,14.171,0,0,1,3.254,10.806c-.773,4.22-.666,4.752.685,7.914,1.065,2.494,3.723,8.524-1.086,4.706-3.108-2.468-5.281,2.984-4.229,6.754a17.233,17.233,0,0,1,.675,7.288C2724.4,1098.194,2711.69,1097.965,2709.616,1095.752Z" transform="translate(-2689.005 -1037.081)" fill="#562e65" fill-rule="evenodd"/>
                  <path id="Path_10441" data-name="Path 10441" d="M2697.672,1060.445c-3.206-14.317,15.619-21.567,22.984-21.736,7.451-.172,13.291,12.089,4.456,16.219C2719.086,1057.744,2707.155,1052.237,2697.672,1060.445Z" transform="translate(-2692.35 -1037.736)" fill-rule="evenodd" fill="url(#linear-gradient-40)"/>
                </g>
              </g>
              <g id="Group_2624" data-name="Group 2624" transform="translate(75.448 105.841)">
                <path id="Path_10442" data-name="Path 10442" d="M2941.776,1100.257a9.708,9.708,0,0,0-.607,2.893,23.164,23.164,0,0,0-1.4,4.391c-.458,2.317-.286,4.145-.355,7.228a15.916,15.916,0,0,0,.63,4.443c-1.808,3.536-4.653,5.71-7.309,8.627l8.607,6.565c3.631-2.4,6.468-4.911,9.594-6.992,2.538-1,3.431-1.572,4.19-2.364,1.993-2.078,7.863-8.253,8.2-10.68.373-2.694-.345-8.922-.954-12.345-1.555-8.723-4.878-17.886-5.448-13.84-.832.969-.152,8.85-.677,10.019-2.037,2.346-3.01,3.31-5.562,6.106a29.247,29.247,0,0,1-3.39,2.049c-.881.238-1.365-.375-1.4-1.149a36.99,36.99,0,0,1,.974-4.65c-.008-3.737-.928-5.855-2.926-5.659a1.976,1.976,0,0,0-1.876,1.748C2941.863,1097.521,2941.918,1098.728,2941.776,1100.257Z" transform="translate(-2837.522 -1087.199)" fill-rule="evenodd" fill="url(#linear-gradient-41)"/>
                <path id="Path_10443" data-name="Path 10443" d="M2790.792,1158.8c11.85,1.828,34.712,14.862,50.49,21.931,8.8-12.54,20.343-27.567,27.467-32.625a23.752,23.752,0,0,0,3.542-2.543q1.551-1.9,3.016-3.908c4.45.618,10.9,6.175,10.812,8.8-.717,1.313-1.447,2.684-2.188,4.1-.507.968-.321,3.091-.621,4.181-2.417,8.779-15.737,29.06-21.946,38.108-3.588,5.228-4.85,8.3-7.279,9.858-3.9,2.5-9.129,1.136-19.209-1.4-8.481-2.132-35.867-7.114-48.468-13.763-8.884-4.687-15.7-13.135-12.172-22.856A15.3,15.3,0,0,1,2790.792,1158.8Z" transform="translate(-2773.287 -1109.136)" fill-rule="evenodd" fill="url(#linear-gradient-42)"/>
              </g>
            </g>
          </g>
        </g>
        <path id="Path_10445" data-name="Path 10445" d="M2083.807,514.966c-.833,5.689-5.282,8.262-9.986,5.653-4.788-2.654-7.872-9.4-7.041-15.093.829-5.649,5.264-8.115,10.052-5.461,4.7,2.6,7.8,9.251,6.974,14.9Zm-25.812,50.527c.833-5.684,5.268-8.15,10.057-5.5,4.7,2.605,7.806,9.252,6.974,14.936s-5.286,8.259-9.99,5.654c-4.788-2.653-7.872-9.408-7.04-15.093Zm-29.383-48.63c-.828,5.653-5.351,8.071-10.053,5.464-4.672-2.59-7.8-9.25-6.974-14.9.832-5.687,5.312-8.244,9.985-5.652,4.7,2.6,7.875,9.4,7.042,15.088Zm49.283-24.035c-8-4.44-15.685-.3-17.1,9.381l-.009.721-27.9,4.391a23.652,23.652,0,0,0-10.271-12.679c-8-4.436-15.573-.193-16.99,9.479-1.4,9.574,3.869,21.01,11.874,25.446,4.615,2.56,9.015,2.251,12.177-.349l22.5,32.441-.172.519c-1.416,9.671,3.988,21.07,11.991,25.507,7.913,4.387,15.567.229,16.985-9.448,1.4-9.57-3.952-21.09-11.87-25.481-5.693-3.155-11.145-1.937-14.37,2.387l-21.314-31.062a12.691,12.691,0,0,0,1.085-3.943,17.222,17.222,0,0,0,.167-4.6L2061.209,511c1.562,7.01,5.871,13.6,11.57,16.758,7.913,4.386,15.572.193,16.99-9.484S2085.808,497.215,2077.9,492.828Z" transform="translate(-1571.63 112.411) rotate(-8)" fill-rule="evenodd" fill="url(#linear-gradient-43)"/>
        <g id="Group_2628" data-name="Group 2628" transform="translate(482.232 718.723) rotate(-8)">
          <path id="Path_10446" data-name="Path 10446" d="M2053.252,1506.725l41.522-68.588,20.969,76.158,21.307-25.935,26.546,81.654Z" transform="translate(-2053.252 -1438.136)" fill-rule="evenodd" opacity="0.5" fill="url(#linear-gradient-44)"/>
          <path id="Path_10447" data-name="Path 10447" d="M2168.844,1445.893c5.7,1.414,10.807,8.078,11.4,14.887s-3.554,11.181-9.258,9.768-10.806-8.078-11.4-14.886S2163.141,1444.479,2168.844,1445.893Z" transform="translate(-2093.32 -1440.961)" fill="#ff89db" fill-rule="evenodd" opacity="0.5"/>
        </g>
      </g>
      <g id="Group_2043" data-name="Group 2043" transform="translate(1430.669 507.283)" opacity="0.28">
        <g id="Group_2042" data-name="Group 2042">
          <g id="Group_2033" data-name="Group 2033" transform="translate(12.539 12.466)">
            <path id="Path_8764" data-name="Path 8764" d="M405.633,424.309A50.434,50.434,0,1,0,467.274,460.2,50.43,50.43,0,0,0,405.633,424.309Zm19.654,74.4A26.52,26.52,0,1,1,444.154,466.3,26.53,26.53,0,0,1,425.287,498.711Z" transform="translate(-368.068 -422.628)" fill="#d547e4"/>
          </g>
          <g id="Group_2034" data-name="Group 2034" transform="translate(36.272)">
            <path id="Path_8765" data-name="Path 8765" d="M399.816,443.233l-21.976,5.808s-8.395-16.532-5.623-21.294c2.858-4.909,17.4-9.162,21.976-5.8C398.639,425.2,399.816,443.233,399.816,443.233Z" transform="translate(-371.656 -420.743)" fill="#d547e4"/>
          </g>
          <g id="Group_2035" data-name="Group 2035" transform="translate(60.291 98.4)">
            <path id="Path_8766" data-name="Path 8766" d="M397.263,435.618l-21.976,5.8s.866,18.516,5.616,21.294c4.915,2.858,19.654-.622,21.983-5.815C405.142,451.878,397.263,435.618,397.263,435.618Z" transform="translate(-375.287 -435.618)" fill="#d547e4"/>
          </g>
          <g id="Group_2036" data-name="Group 2036" transform="translate(4.156 24.853)">
            <path id="Path_8767" data-name="Path 8767" d="M396.4,433.23l-8.851,20.937s-18.212-3.473-20.282-8.58c-2.13-5.259,3.394-19.363,8.851-20.931C381.413,423.135,396.4,433.23,396.4,433.23Z" transform="translate(-366.801 -424.501)" fill="#d547e4"/>
          </g>
          <g id="Group_2037" data-name="Group 2037" transform="translate(0 64.051)">
            <path id="Path_8768" data-name="Path 8768" d="M390.358,430.831l2.143,22.631s-17.683,5.59-21.923,2.077c-4.379-3.618-6.205-18.661-2.137-22.631C372.385,429.065,390.358,430.831,390.358,430.831Z" transform="translate(-366.173 -430.426)" fill="#d547e4"/>
          </g>
          <g id="Group_2038" data-name="Group 2038" transform="translate(98.686 37.748)">
            <path id="Path_8769" data-name="Path 8769" d="M386,454.071l-4.909-22.188s16.875-7.72,21.5-4.756c4.789,3.049,8.448,17.755,4.909,22.194C404.059,453.628,386,454.071,386,454.071Z" transform="translate(-381.091 -426.45)" fill="#d547e4"/>
          </g>
          <g id="Group_2039" data-name="Group 2039" transform="translate(73.297 4.807)">
            <path id="Path_8770" data-name="Path 8770" d="M377.253,439.08l18.033,13.826S409.41,440.9,408.7,435.435c-.741-5.636-12.51-15.169-18.033-13.839C385.317,422.892,377.253,439.08,377.253,439.08Z" transform="translate(-377.253 -421.47)" fill="#d547e4"/>
          </g>
          <g id="Group_2040" data-name="Group 2040" transform="translate(17.775 91.645)">
            <path id="Path_8771" data-name="Path 8771" d="M400.329,448.429,382.3,434.6s-14.137,12.007-13.416,17.464c.747,5.636,12.523,15.169,18.04,13.826C392.278,464.61,400.329,448.429,400.329,448.429Z" transform="translate(-368.86 -434.597)" fill="#d547e4"/>
          </g>
          <g id="Group_2041" data-name="Group 2041" transform="translate(93.268 73.658)">
            <path id="Path_8772" data-name="Path 8772" d="M380.272,452.8l8.851-20.924s18.219,3.46,20.289,8.567c2.13,5.259-3.394,19.37-8.851,20.937C395.256,462.9,380.272,452.8,380.272,452.8Z" transform="translate(-380.272 -431.878)" fill="#d547e4"/>
          </g>
        </g>
      </g>
    </g>
  </g>
</svg>
